HIERARCHY
ROOT Bip001_Pelvis
{
  OFFSET 7.937 94.8971 -8.5489
  CHANNELS 6 Xposition Yposition Zposition Zrotation Xrotation Yrotation
  JOINT Bip001_Spine
  {
    OFFSET 1.44608e-005 10.4157 -0.0118244
    CHANNELS 3 Zrotation Xrotation Yrotation
    JOINT Bip001_L_Thigh
    {
      OFFSET 11.2582 -10.4157 0.0118432
      CHANNELS 3 Zrotation Xrotation Yrotation
      JOINT Bip001_L_Calf
      {
        OFFSET -0.720717 -44.8687 0.366937
        CHANNELS 3 Zrotation Xrotation Yrotation
        JOINT Bip001_L_Foot
        {
          OFFSET -0.664439 -41.3745 -3.62995
          CHANNELS 3 Zrotation Xrotation Yrotation
          JOINT Bip001_L_Toe0
          {
            OFFSET 0.0541047 -10.4146 13.4033
            CHANNELS 3 Zrotation Xrotation Yrotation
            End Site
            {
              OFFSET -1.04503e-005 0 7.70137
            }
          }
        }
      }
    }
    JOINT Bip001_R_Thigh
    {
      OFFSET -11.2582 -10.4156 0.0118122
      CHANNELS 3 Zrotation Xrotation Yrotation
      JOINT Bip001_R_Calf
      {
        OFFSET 0.72059 -44.8687 0.36676
        CHANNELS 3 Zrotation Xrotation Yrotation
        JOINT Bip001_R_Foot
        {
          OFFSET 0.664321 -41.3745 -3.62979
          CHANNELS 3 Zrotation Xrotation Yrotation
          JOINT Bip001_R_Toe0
          {
            OFFSET -0.05417 -10.4146 13.4033
            CHANNELS 3 Zrotation Xrotation Yrotation
            End Site
            {
              OFFSET -1.04873e-005 0 7.70137
            }
          }
        }
      }
    }
    JOINT Bip001_Spine1
    {
      OFFSET 1.90638e-005 14.8539 1.10727
      CHANNELS 3 Zrotation Xrotation Yrotation
      JOINT Bip001_Spine2
      {
        OFFSET 2.28934e-005 14.7848 -1.7233
        CHANNELS 3 Zrotation Xrotation Yrotation
        JOINT Bip001_Neck
        {
          OFFSET 2.24514e-005 15.6905 -0.498826
          CHANNELS 3 Zrotation Xrotation Yrotation
          JOINT Bip001_L_Clavicle
          {
            OFFSET 6.17691 -0.000591152 0.00852867
            CHANNELS 3 Zrotation Xrotation Yrotation
            JOINT Bip001_L_UpperArm
            {
              OFFSET 11.773 -0.0611878 0.00197697
              CHANNELS 3 Zrotation Xrotation Yrotation
              JOINT Bip001_L_Forearm
              {
                OFFSET 26.4515 0.0817568 -2.19579
                CHANNELS 3 Zrotation Xrotation Yrotation
                JOINT Bip001_L_Hand
                {
                  OFFSET 32.8677 0.156744 1.67112
                  CHANNELS 3 Zrotation Xrotation Yrotation
                  JOINT Bip001_L_Finger0
                  {
                    OFFSET 6.16268 -2.25226 6.01674
                    CHANNELS 3 Zrotation Xrotation Yrotation
                    End Site
                    {
                      OFFSET 4.30499 -1.46662 0.618148
                    }
                  }
                  JOINT Bip001_L_Finger1
                  {
                    OFFSET 11.2957 -0.718374 -0.201963
                    CHANNELS 3 Zrotation Xrotation Yrotation
                    End Site
                    {
                      OFFSET 6.31952 -0.405163 -0.0802303
                    }
                  }
                }
              }
            }
          }
          JOINT Bip001_R_Clavicle
          {
            OFFSET -6.17691 -0.000574027 0.00851165
            CHANNELS 3 Zrotation Xrotation Yrotation
            JOINT Bip001_R_UpperArm
            {
              OFFSET -11.773 -0.0611516 0.00194365
              CHANNELS 3 Zrotation Xrotation Yrotation
              JOINT Bip001_R_Forearm
              {
                OFFSET -26.4514 0.0822334 -2.19736
                CHANNELS 3 Zrotation Xrotation Yrotation
                JOINT Bip001_R_Hand
                {
                  OFFSET -32.8677 0.156817 1.67144
                  CHANNELS 3 Zrotation Xrotation Yrotation
                  JOINT Bip001_R_Finger0
                  {
                    OFFSET -6.1627 -2.25224 6.0167
                    CHANNELS 3 Zrotation Xrotation Yrotation
                    End Site
                    {
                      OFFSET -4.30499 -1.46662 0.618134
                    }
                  }
                  JOINT Bip001_R_Finger1
                  {
                    OFFSET -11.2958 -0.718344 -0.201994
                    CHANNELS 3 Zrotation Xrotation Yrotation
                    End Site
                    {
                      OFFSET -6.31952 -0.405146 -0.0802475
                    }
                  }
                }
              }
            }
          }
          JOINT Bip001_Head
          {
            OFFSET 1.11782e-005 11.4912 2.09908
            CHANNELS 3 Zrotation Xrotation Yrotation
            End Site
            {
              OFFSET 2.95144e-005 21.2823 -2.83069e-005
            }
          }
        }
      }
    }
  }
}
MOTION
Frames:	10
Frame Time:	0.04
6.28988 95.6536 -8.29315 -0.278314 -0.846154 10.042 -0.395344 0.664462 1.42403 6.32379 -9.36979 6.61063 -0.399796 13.9483 -5.17053 -3.51138 -3.84287 -3.38771 0.525576 -10.0037 -0.277777 -6.17261 -2.87991 -2.80823 0.825406 13.1983 -0.439394 -0.615516 -8.21747 -14.6179 -0.396898 -11.4582 -0.125461 -0.876059 1.31802 2.85287 -0.87606 1.31802 2.85288 -2.26442 -2.62819 -4.25725 -27.7423 6.95584 -9.40306 -49.2456 39.1998 7.58277 13.6574 4.25037 -24.5642 -5.58825 -0.390947 -0.253457 -3.18055e-015 -3.18055e-015 4.77083e-015 -3.18055e-015 -6.36111e-015 3.18055e-015 10.3507 7.39003 24.6768 25.0264 -14.7881 53.3494 -46.7541 6.94931 51.7459 -30.7849 10.1831 -8.8319 -6.36111e-015 9.54166e-015 -7.95139e-016 1.76556e-031 6.36111e-015 -1.59028e-015 0.377001 1.38246 -4.84437 
6.33381 95.6636 -8.30803 -0.246608 -0.996042 9.74495 -0.362975 0.687781 1.37093 6.26885 -9.14 6.6991 -0.383735 13.8702 -5.10631 -3.52624 -3.8428 -3.23171 0.549799 -9.99913 -0.255558 -6.27315 -2.80598 -3.14991 0.747441 13.1688 -0.167655 -0.550779 -8.15458 -14.2139 -0.399809 -11.4649 -0.0750223 -0.806379 1.3659 2.74574 -0.806378 1.3659 2.74573 -2.50479 -2.59143 -4.01291 -27.858 6.95866 -9.26108 -49.6297 39.5294 8.12197 13.6406 4.48462 -24.331 -5.70637 -0.346597 -0.428703 -4.77083e-015 -6.36111e-015 1.59028e-015 -4.77083e-015 -6.36111e-015 -0 11.176 7.50682 24.5243 26.6559 -15.3938 51.4263 -47.5942 5.74193 56.6041 -31.8948 8.78554 -7.97616 3.18055e-015 6.36111e-015 1.59028e-015 3.18055e-015 3.18056e-015 1.59028e-015 0.311129 1.70117 -4.65643 
6.37312 95.6596 -8.3667 -0.288121 -1.02451 9.30769 -0.366019 0.682689 1.38739 6.32888 -9.10606 6.84026 -0.408142 13.9832 -4.90708 -3.49188 -3.9466 -3.16508 0.532203 -9.99742 -0.242509 -6.27265 -2.93225 -2.96825 0.741691 13.2039 -0.0217666 -0.511543 -8.0842 -14.1201 -0.411804 -11.4665 -0.0680641 -0.817593 1.35547 2.77898 -0.817593 1.35547 2.77898 -2.39856 -2.64574 -4.03895 -27.8678 7.00359 -9.28991 -50.2292 39.8971 8.63885 13.6221 4.61649 -24.0614 -6.03982 -0.400699 -0.475755 -0 0 1.59028e-015 -1.59028e-015 3.18056e-015 1.59028e-015 12.8656 8.03305 24.1837 28.0248 -16.8621 50.3901 -49.6001 5.92104 61.8186 -34.174 7.4496 -6.2373 6.36111e-015 9.54166e-015 -0 4.77083e-015 9.54167e-015 1.59028e-015 0.0827135 1.87857 -4.59575 
6.43473 95.6597 -8.42986 -0.324513 -1.01631 8.89724 -0.365868 0.650254 1.37657 6.34277 -9.06907 6.75312 -0.446225 14.0527 -4.55393 -3.47547 -4.02072 -3.03099 0.535145 -9.99628 -0.221795 -6.30962 -3.04471 -2.61961 0.807314 13.1966 -0.0472944 -0.482958 -7.99348 -14.0295 -0.420052 -11.4703 -0.0607165 -0.822351 1.29062 2.75672 -0.822353 1.29063 2.75673 -2.45203 -2.50948 -3.95368 -27.9202 6.86626 -9.22479 -50.5516 40.4104 8.99274 13.5545 4.66867 -23.7248 -6.23571 -0.385662 -0.472732 -2.64834e-031 9.54166e-015 1.59028e-015 0 3.18056e-015 -0 15.6542 8.54658 23.4384 30.2061 -19.0152 47.5628 -51.3564 4.84581 70.827 -35.4271 7.43287 -4.52674 -6.36111e-015 -3.18055e-015 7.95139e-016 -6.36111e-015 -3.18056e-015 1.59028e-015 0.0972628 1.72054 -4.53647 
6.47074 95.6545 -8.45186 -0.34516 -1.06348 8.67954 -0.350477 0.608866 1.37047 6.37078 -8.99398 6.78658 -0.501536 14.151 -4.46029 -3.45563 -4.07859 -2.9419 0.557377 -9.99516 -0.213417 -6.33496 -3.02034 -2.63236 0.774667 13.201 0.0517977 -0.405434 -7.97509 -13.8772 -0.455997 -11.4647 -0.0520586 -0.787696 1.20831 2.7436 -0.787697 1.20831 2.7436 -2.1391 -2.31389 -4.02939 -28.52 6.73638 -9.45084 -50.8534 40.3126 9.49365 13.4889 4.79786 -23.5089 -6.08198 -0.399525 -0.489499 1.76556e-031 -6.36111e-015 1.59028e-015 3.18055e-015 -9.54167e-015 -0 18.3024 8.7741 21.6803 32.1789 -20.5965 43.8737 -50.6091 3.81603 81.0831 -35.3394 7.758 -3.15271 1.59028e-015 -3.18055e-015 -0 1.76556e-031 -6.36111e-015 1.59028e-015 -0.300778 1.37212 -4.43891 
6.50439 95.6436 -8.45479 -0.320896 -1.2032 8.4824 -0.345788 0.614173 1.25259 6.40067 -8.84491 6.94664 -0.556576 14.2518 -4.35477 -3.39868 -4.16853 -2.90736 0.538075 -9.99349 -0.211672 -6.38019 -2.97751 -2.46121 0.776905 13.2852 -0.0366596 -0.269603 -8.02622 -13.6499 -0.535452 -11.4582 -0.0132244 -0.792126 1.21969 2.50791 -0.792126 1.21969 2.50792 -2.10849 -2.48618 -3.82392 -28.4142 6.89715 -9.35205 -51.3512 40.1382 9.62315 13.5052 4.90583 -23.394 -6.02365 -0.404033 -0.297624 -0 0 1.59028e-015 1.59028e-015 0 1.59028e-015 20.8852 9.28937 20.3204 30.5562 -18.9669 36.9054 -48.7181 1.28907 88.3398 -34.0505 7.8248 -2.53405 4.77083e-015 0 1.59028e-015 6.36111e-015 0 1.59028e-015 -0.364303 1.46032 -4.21033 
6.51248 95.632 -8.45894 -0.265869 -1.3851 8.2573 -0.315131 0.661724 1.11604 6.40982 -8.66017 7.02838 -0.646784 14.2962 -4.13372 -3.37264 -4.22878 -2.85396 0.53306 -9.98872 -0.202464 -6.44912 -2.97433 -2.82254 0.602389 13.4557 0.173492 -0.0722067 -8.11689 -13.1328 -0.617563 -11.4523 0.0415129 -0.741629 1.31616 2.23461 -0.741904 1.31617 2.23469 -2.39451 -2.93189 -3.55193 -28.0896 7.2853 -8.97672 -51.5808 39.9542 9.24884 13.442 5.00497 -23.2526 -5.9709 -0.541124 0.00632085 1.59028e-015 -3.18055e-015 -0 1.59028e-015 -3.18056e-015 1.59028e-015 23.819 10.0129 18.8922 27.6527 -14.586 28.3173 -46.9635 -1.41223 93.235 -31.702 7.47993 -1.20056 1.59028e-015 0 -0 3.18055e-015 3.18056e-015 -0 -0.328341 1.41194 -4.0199 
6.50846 95.6245 -8.47248 -0.207013 -1.48585 7.98836 -0.294932 0.681177 1.0166 6.37966 -8.4904 7.20278 -0.66141 14.2571 -4.07269 -3.3797 -4.25378 -2.76746 0.536143 -9.98155 -0.165117 -6.55275 -3.03568 -2.66754 0.612349 13.6119 0.0391798 0.0781238 -8.2028 -12.8058 -0.726046 -11.4383 0.0915235 -0.712531 1.35604 2.03513 -0.71253 1.35604 2.03513 -2.304 -3.00263 -3.41929 -28.0597 7.50472 -9.37172 -52.2216 39.5111 9.52272 13.5416 4.85356 -23.4139 -5.86414 -0.45948 -0.484731 3.53112e-031 1.27222e-014 -1.59028e-015 -1.59028e-015 9.54167e-015 -1.59028e-015 25.863 10.3135 17.9724 26.7075 -9.27034 19.0504 -45.2763 -2.4198 95.9494 -25.9325 6.60723 -0.181758 -0 0 3.18055e-015 6.36111e-015 0 6.36111e-015 -0.543764 1.08837 -3.81781 
6.50391 95.6166 -8.46165 -0.179151 -1.60637 7.65417 -0.25875 0.724527 0.910275 6.38108 -8.33025 7.52706 -0.648755 14.2857 -4.06422 -3.39377 -4.3246 -2.69852 0.536732 -9.98055 -0.14265 -6.63304 -3.07995 -2.57681 0.607169 13.7128 0.126577 0.193675 -8.26627 -12.5585 -0.829292 -11.4235 0.132631 -0.650598 1.44388 1.82223 -0.650598 1.44388 1.82225 -2.65205 -3.25093 -3.12714 -27.6497 7.84417 -9.42219 -52.5414 39.6797 9.47639 13.6434 4.60892 -23.6421 -5.74092 -0.440126 -0.713137 -8.82781e-032 3.18055e-015 1.59028e-015 1.59028e-015 0 1.59028e-015 28.8886 10.7728 16.7463 26.3776 -2.36553 10.2283 -41.5653 -1.39524 96.1079 -18.2514 7.50828 -2.1004 -3.18055e-015 3.18055e-015 -6.36111e-015 -3.18055e-015 0 -0 -0.241219 0.735255 -3.69345 
6.49444 95.619 -8.42668 -0.140089 -1.74012 7.40746 -0.253817 0.750124 0.802531 6.41029 -8.09618 7.54109 -0.751287 14.2141 -3.98705 -3.37405 -4.35951 -2.445 0.536712 -9.97635 -0.131972 -6.67792 -3.01283 -2.44696 0.618176 13.7192 0.119234 0.30346 -8.30862 -12.3417 -0.930331 -11.4038 0.176551 -0.661336 1.49563 1.60696 -0.661332 1.49563 1.60695 -2.36227 -3.29878 -3.04564 -27.7458 8.00992 -9.81983 -52.6847 39.6947 9.42174 13.6505 4.38248 -23.8521 -5.77745 -0.440926 -0.767217 0 0 -3.18055e-015 3.18055e-015 0 -3.18055e-015 29.8461 10.9797 16.4447 31.1242 1.99419 1.92947 -38.7195 1.21617 92.9642 -9.72622 7.13851 -4.39176 -1.68967e-015 -3.67752e-015 -9.54166e-015 -1.68967e-015 -2.5842e-015 -1.27222e-014 -0.393442 0.540909 -3.50224 
